<?xml version="1.0" standalone="no"?>
<!DOCTYPE svg PUBLIC "-//W3C//DTD SVG 20010904//EN"
 "http://www.w3.org/TR/2001/REC-SVG-20010904/DTD/svg10.dtd">
<svg version="1.0" xmlns="http://www.w3.org/2000/svg"
 width="1024.000000pt" height="1024.000000pt" viewBox="0 0 1024.000000 1024.000000"
 preserveAspectRatio="xMidYMid meet">

<g transform="translate(0.000000,1024.000000) scale(0.100000,-0.100000)"
fill="#000000" stroke="none">
<path d="M4420 7238 c-63 -31 -167 -141 -217 -229 -44 -78 -72 -166 -74 -234
-1 -40 -16 -103 -18 -75 -3 45 -139 212 -225 276 -126 95 -227 128 -234 76 -3
-17 26 -53 125 -155 71 -73 150 -162 175 -197 64 -91 131 -203 116 -194 -7 4
-31 20 -53 34 -179 121 -394 160 -604 110 -144 -35 -265 -113 -259 -168 4 -33
13 -33 153 -2 77 18 133 23 245 24 158 0 214 -8 360 -57 l95 -31 -69 -7 c-185
-20 -367 -100 -480 -213 -111 -111 -167 -235 -170 -370 -1 -70 -1 -71 25 -74
25 -3 32 6 80 95 43 79 74 118 154 199 83 83 115 108 190 146 100 51 227 96
295 105 l45 6 -62 -42 c-114 -77 -217 -212 -256 -336 -39 -124 -23 -344 26
-353 29 -6 46 16 52 66 20 151 67 278 148 398 50 75 111 150 85 104 -87 -149
-88 -405 -3 -577 60 -122 109 -162 135 -112 9 16 7 38 -12 102 -20 73 -23 103
-23 267 0 160 3 196 22 266 43 157 35 155 109 24 231 -410 349 -755 439 -1286
23 -131 45 -368 45 -476 l0 -48 -975 0 c-962 0 -975 0 -995 -20 -24 -24 -25
-49 -6 -76 14 -19 50 -19 2262 -22 2475 -2 2294 -7 2294 58 0 64 68 60 -1012
60 l-981 0 7 131 c24 490 181 1097 393 1524 46 93 144 255 153 255 9 0 58
-188 71 -270 15 -99 5 -228 -28 -364 -28 -115 -26 -138 15 -144 39 -6 126 150
158 285 29 123 2 330 -57 431 -34 60 -3 24 58 -65 100 -146 151 -266 174 -408
14 -89 23 -107 52 -103 31 5 49 69 50 183 1 113 -16 184 -66 278 -38 72 -137
181 -211 232 -31 21 -56 39 -56 40 0 5 128 -25 167 -39 84 -30 240 -117 304
-169 85 -71 147 -144 213 -253 52 -87 80 -110 97 -82 22 34 -6 184 -51 273
-63 125 -199 246 -347 311 -72 31 -125 43 -268 62 l-60 8 85 28 c230 74 455
83 673 26 84 -22 107 -18 107 20 0 26 -74 88 -145 121 -96 46 -191 62 -325 56
-161 -7 -282 -47 -404 -134 -62 -44 -58 -34 46 120 58 86 121 162 212 255 110
112 129 136 119 150 -19 29 -75 19 -158 -29 -103 -59 -182 -132 -252 -235
l-58 -86 -7 58 c-17 131 -82 267 -178 367 -76 81 -139 127 -174 127 -49 0 -43
-26 27 -114 55 -71 109 -182 151 -315 20 -63 36 -119 36 -124 0 -6 -14 11 -31
36 -75 113 -244 230 -380 262 -66 15 -175 18 -219 6 -18 -5 -25 -14 -25 -31 0
-22 9 -28 75 -51 247 -84 417 -221 543 -435 4 -7 -26 10 -66 36 -132 88 -251
124 -397 123 -149 -1 -265 -39 -258 -86 4 -27 32 -35 128 -36 134 -2 377 -58
460 -106 22 -13 23 -14 5 -15 -49 -1 -187 -44 -263 -82 -59 -29 -107 -63 -163
-116 -84 -79 -122 -134 -144 -207 -12 -39 -12 -47 1 -60 26 -26 48 -17 101 44
95 107 217 185 403 256 47 18 103 36 124 40 l39 6 -37 -48 c-145 -190 -235
-351 -329 -588 -125 -311 -231 -783 -279 -1237 l-12 -118 -92 0 -92 0 -7 78
c-14 156 -57 451 -90 617 -105 520 -291 969 -519 1248 -45 56 -46 57 -19 51
193 -44 406 -166 541 -308 55 -57 80 -67 102 -41 24 29 -17 133 -87 215 -110
132 -234 203 -413 239 l-85 17 85 33 c120 46 224 69 369 81 148 13 151 14 151
38 0 49 -103 83 -250 83 -154 1 -259 -31 -392 -116 l-70 -46 23 38 c114 190
293 331 511 402 80 26 99 44 74 69 -14 14 -36 17 -129 17 -128 -1 -192 -19
-286 -82 -58 -38 -172 -147 -209 -198 l-21 -30 9 35 c6 19 20 69 31 110 27 97
87 222 138 285 73 90 75 93 61 110 -17 20 -27 19 -80 -7z"/>
<path d="M3552 4020 c-646 -4 -744 -7 -752 -20 -16 -25 -11 -48 12 -64 20 -14
118 -16 858 -16 740 0 838 2 858 16 26 18 29 56 6 75 -20 16 10 16 -982 9z"/>
<path d="M6181 4023 c-389 -2 -558 -6 -568 -14 -19 -16 -16 -53 5 -72 17 -16
91 -17 864 -17 826 0 845 0 863 20 23 26 13 68 -21 80 -15 6 -144 9 -307 8
-155 -2 -531 -4 -836 -5z"/>
<path d="M3810 3807 c-16 -8 -26 -23 -28 -40 -7 -59 -23 -57 501 -57 l480 0
-7 -65 c-4 -36 -9 -72 -12 -80 -5 -13 -49 -15 -318 -15 -323 0 -335 -1 -349
-41 -3 -9 1 -26 9 -38 15 -21 21 -21 330 -21 192 0 314 -4 314 -10 0 -8 -12
-73 -26 -137 l-4 -23 -474 0 c-445 0 -474 -1 -489 -18 -20 -22 -22 -53 -5 -70
9 -9 129 -12 480 -12 l468 0 0 -24 c0 -22 3 -24 28 -17 33 10 105 2 113 -12 4
-5 10 5 14 23 l7 33 305 -5 c243 -5 307 -8 314 -19 7 -11 9 -10 9 4 0 16 29
17 461 17 298 0 467 4 480 10 12 7 19 21 19 40 0 19 -7 33 -19 40 -13 6 -185
10 -490 10 l-470 0 -11 58 c-6 31 -13 69 -16 85 l-6 27 324 0 c239 0 327 3
336 12 18 18 15 53 -6 71 -17 15 -55 17 -339 17 l-321 0 -11 63 c-6 35 -11 71
-11 80 0 16 38 17 474 17 516 0 506 -1 506 55 0 55 4 55 -602 55 l-558 0 0
-47 c0 -27 7 -86 15 -133 8 -47 15 -86 15 -87 0 -2 -72 -3 -160 -3 -88 0 -160
3 -160 8 0 4 7 57 15 117 8 61 15 118 15 127 0 16 -37 17 -557 18 -431 0 -564
-3 -583 -13z m1444 -374 c3 -10 10 -40 16 -68 6 -27 13 -58 16 -67 5 -17 -10
-18 -210 -18 l-215 0 9 28 c5 15 14 53 20 85 l11 57 174 0 c157 0 174 -2 179
-17z"/>
<path d="M3526 3534 c-22 -21 -20 -61 3 -74 12 -6 96 -10 205 -10 180 0 185 1
200 22 20 29 20 34 -4 58 -19 19 -33 20 -204 20 -154 0 -187 -3 -200 -16z"/>
<path d="M6238 3539 c-25 -14 -24 -65 1 -79 12 -6 93 -10 194 -10 156 0 176 2
190 18 23 25 21 48 -5 66 -18 13 -54 16 -193 16 -97 0 -178 -5 -187 -11z"/>
</g>
</svg>
