<?xml version="1.0" standalone="no"?>
<!DOCTYPE svg PUBLIC "-//W3C//DTD SVG 20010904//EN"
 "http://www.w3.org/TR/2001/REC-SVG-20010904/DTD/svg10.dtd">
<svg version="1.0" xmlns="http://www.w3.org/2000/svg"
 width="538.000000pt" height="472.000000pt" viewBox="0 0 538.000000 472.000000"
 preserveAspectRatio="xMidYMid meet">

<g transform="translate(0.000000,472.000000) scale(0.100000,-0.100000)"
fill="#000000" stroke="none">
<path d="M1963 4569 c-51 -24 -140 -104 -197 -178 -84 -109 -136 -240 -136
-341 0 -41 -13 -81 -23 -70 -2 3 -25 38 -51 78 -63 99 -174 207 -271 265 -125
74 -185 85 -185 34 0 -18 32 -57 114 -140 133 -135 230 -254 288 -352 23 -38
48 -78 56 -87 26 -30 -3 -20 -85 30 -102 64 -189 98 -298 117 -109 19 -145 19
-268 0 -195 -29 -384 -137 -362 -205 8 -26 43 -26 143 0 170 43 474 44 602 0
14 -4 58 -18 98 -31 39 -12 72 -26 72 -30 0 -4 -26 -11 -57 -14 -143 -17 -335
-91 -443 -170 -91 -66 -178 -175 -223 -277 -42 -93 -59 -237 -34 -272 23 -31
54 -11 88 57 101 201 239 343 424 436 98 49 264 104 302 99 27 -3 27 -4 -23
-40 -73 -53 -176 -166 -218 -237 -69 -118 -98 -266 -77 -398 14 -93 28 -123
56 -123 34 0 42 17 54 114 14 104 39 181 91 286 38 75 138 225 146 218 2 -2
-8 -38 -23 -79 -21 -58 -27 -98 -31 -189 -7 -184 25 -310 116 -447 28 -44 39
-53 63 -53 48 0 53 25 22 137 -26 90 -28 112 -28 283 0 146 4 201 18 260 24
96 49 168 61 172 12 4 201 -342 258 -472 58 -133 69 -162 133 -360 74 -230 68
-210 109 -410 20 -96 40 -194 46 -216 21 -92 50 -367 52 -504 l3 -145 -1083
-5 c-1058 -5 -1084 -5 -1098 -24 -26 -36 -17 -74 23 -95 16 -8 651 -11 2495
-11 2760 0 2518 -7 2518 70 0 21 -6 42 -12 47 -7 4 -501 10 -1098 13 l-1085 5
3 135 c2 74 8 164 13 200 50 376 68 463 163 820 25 94 88 280 141 415 73 187
259 535 286 535 18 0 78 -248 86 -356 7 -94 -9 -237 -38 -344 -34 -126 -34
-126 -6 -144 33 -22 50 -13 86 43 71 109 130 290 131 396 0 54 -34 230 -55
283 -10 24 -15 45 -12 48 9 10 108 -141 152 -232 47 -97 78 -198 98 -316 12
-72 13 -73 42 -73 44 0 58 49 59 200 1 97 -3 133 -21 190 -41 132 -138 263
-259 352 l-66 48 37 3 c44 4 119 -22 261 -90 198 -95 344 -234 455 -434 45
-82 64 -98 85 -69 30 40 5 196 -47 298 -93 184 -290 337 -509 395 -30 8 -95
17 -145 21 l-90 6 31 17 c28 15 77 31 219 71 24 6 128 11 255 12 193 0 223 -2
297 -22 45 -13 96 -23 113 -23 28 0 30 3 30 35 0 30 -7 40 -53 74 -29 22 -77
51 -107 64 -104 45 -147 52 -320 52 -154 0 -170 -2 -249 -28 -96 -32 -143 -55
-218 -105 -29 -19 -55 -33 -58 -30 -5 5 127 205 192 291 25 31 96 108 159 169
63 62 114 120 114 130 0 23 -35 41 -63 33 -38 -11 -110 -47 -167 -84 -81 -51
-160 -131 -226 -227 -66 -97 -58 -101 -89 36 -30 131 -94 249 -193 352 -152
159 -281 172 -163 16 86 -113 141 -227 191 -396 12 -39 20 -77 18 -83 -2 -6
-24 15 -48 47 -53 68 -169 163 -251 204 -86 44 -192 70 -282 70 -84 0 -147
-19 -147 -45 0 -17 21 -27 155 -75 181 -65 373 -208 471 -351 55 -80 81 -125
67 -116 -4 3 -38 25 -74 50 -171 115 -373 159 -562 123 -104 -20 -151 -44
-155 -79 -2 -16 2 -29 10 -31 7 -2 76 -9 152 -15 186 -16 374 -59 469 -108 34
-17 31 -23 -20 -33 -179 -37 -314 -104 -429 -213 -88 -83 -122 -131 -155 -217
-23 -60 -13 -90 27 -90 18 0 42 19 87 67 88 94 175 157 302 218 148 72 305
122 305 98 0 -5 -21 -36 -46 -69 -80 -101 -175 -254 -241 -386 -35 -70 -63
-130 -63 -134 0 -3 -7 -20 -15 -37 -67 -147 -160 -444 -206 -662 -69 -322
-106 -552 -128 -780 -6 -60 -15 -113 -19 -117 -5 -5 -51 -7 -103 -6 l-94 3 -7
50 c-3 28 -11 97 -17 155 -29 280 -82 581 -144 820 -107 413 -261 762 -463
1050 -47 67 -83 124 -80 127 9 9 193 -54 270 -93 113 -57 204 -122 301 -215
50 -47 98 -89 107 -92 29 -10 51 21 44 62 -18 111 -151 273 -289 354 -98 57
-236 107 -295 107 -37 0 -50 15 -23 29 40 22 189 70 261 85 87 18 234 36 302
36 52 0 63 9 54 46 -9 36 -73 61 -187 76 -79 10 -111 9 -194 -4 -122 -19 -187
-43 -296 -108 -45 -28 -84 -48 -86 -46 -14 14 140 209 209 267 112 92 251 169
368 202 74 21 98 40 84 64 -15 24 -45 31 -139 32 -144 1 -265 -42 -382 -135
-57 -46 -74 -62 -139 -138 -39 -46 -51 -42 -36 11 6 21 17 64 26 96 31 115 95
235 181 342 45 57 47 62 29 79 -19 19 -18 19 -71 -5z"/>
<path d="M185 998 c-43 -24 -48 -68 -10 -92 22 -14 115 -16 950 -16 l926 0 24
25 c38 37 31 65 -18 84 -41 16 -1845 15 -1872 -1z"/>
<path d="M3466 1003 c-111 -2 -185 -8 -193 -14 -19 -16 -16 -63 5 -82 17 -16
97 -17 948 -17 1024 0 974 -3 974 60 0 63 33 60 -800 58 -415 -1 -836 -4 -934
-5z"/>
<path d="M1290 773 c-48 -18 -65 -67 -34 -97 14 -14 76 -16 540 -16 479 0 525
-1 531 -17 3 -9 0 -48 -8 -87 l-14 -71 -351 -5 c-375 -5 -384 -7 -384 -55 0
-48 10 -50 379 -55 301 -4 346 -7 343 -20 -2 -8 -9 -49 -16 -90 l-11 -75 -532
-5 c-335 -3 -536 -9 -542 -15 -10 -11 -14 -30 -12 -56 3 -40 3 -40 1507 -37
1158 2 1454 6 1472 16 29 17 29 56 0 76 -20 14 -88 16 -540 16 l-518 0 -9 23
c-9 22 -31 134 -31 155 0 9 87 12 353 12 330 0 355 1 370 18 23 26 21 58 -5
76 -19 14 -72 16 -370 16 -236 0 -349 3 -353 11 -11 18 -35 143 -30 157 3 9
118 12 525 12 507 0 521 1 540 20 26 26 25 46 -5 75 l-24 25 -608 0 c-334 0
-614 -4 -621 -9 -11 -7 -11 -29 3 -127 8 -65 16 -128 18 -139 2 -19 -4 -20
-173 -20 -169 0 -175 1 -173 20 1 11 8 74 16 140 9 66 13 122 10 125 -7 7
-1225 10 -1243 3z m1597 -468 c7 -33 16 -75 19 -92 l7 -33 -231 0 c-127 0
-233 3 -235 8 -4 6 24 133 38 170 3 10 48 12 197 10 l192 -3 13 -60z"/>
<path d="M966 467 c-11 -8 -18 -26 -18 -42 0 -51 17 -55 236 -55 220 1 239 5
239 56 0 50 -19 54 -238 54 -151 0 -206 -3 -219 -13z"/>
<path d="M3962 464 c-12 -8 -22 -26 -22 -39 0 -49 27 -55 236 -55 l193 0 20
26 c11 14 17 33 14 42 -13 39 -31 42 -228 42 -156 0 -195 -3 -213 -16z"/>
</g>
</svg>
